<svg width="285" height="28" viewBox="0 0 285 28" fill="none" xmlns="http://www.w3.org/2000/svg">
<path opacity="0.87" d="M0.981534 27V0.818181H11.8991C13.8594 0.818181 15.5 1.09517 16.821 1.64915C18.1506 2.20312 19.1477 2.97869 19.8125 3.97585C20.4858 4.97301 20.8224 6.12784 20.8224 7.44034C20.8224 8.4375 20.6136 9.32812 20.196 10.1122C19.7784 10.8878 19.2031 11.5312 18.4702 12.0426C17.7372 12.554 16.8892 12.9119 15.9261 13.1165V13.3722C16.983 13.4233 17.9588 13.7088 18.8537 14.2287C19.7571 14.7486 20.4815 15.473 21.027 16.402C21.5724 17.3224 21.8452 18.4134 21.8452 19.6747C21.8452 21.081 21.4872 22.3381 20.7713 23.446C20.0554 24.5455 19.0199 25.4148 17.6648 26.054C16.3097 26.6847 14.6648 27 12.7301 27H0.981534ZM7.30966 21.8991H11.2216C12.5938 21.8991 13.6037 21.6392 14.2514 21.1193C14.9077 20.5994 15.2358 19.875 15.2358 18.946C15.2358 18.2727 15.0781 17.6932 14.7628 17.2074C14.4474 16.7131 14 16.3338 13.4205 16.0696C12.8409 15.7969 12.1463 15.6605 11.3366 15.6605H7.30966V21.8991ZM7.30966 11.5824H10.8125C11.5028 11.5824 12.1165 11.4673 12.6534 11.2372C13.1903 11.0071 13.608 10.6747 13.9062 10.2401C14.2131 9.8054 14.3665 9.28125 14.3665 8.66761C14.3665 7.78977 14.0554 7.09943 13.4332 6.59659C12.8111 6.09375 11.9716 5.84233 10.9148 5.84233H7.30966V11.5824ZM49.5994 13.9091C49.5994 16.7898 49.0455 19.2315 47.9375 21.2344C46.8295 23.2372 45.3295 24.7585 43.4375 25.7983C41.554 26.8381 39.4403 27.358 37.0966 27.358C34.7443 27.358 32.6264 26.8338 30.7429 25.7855C28.8594 24.7372 27.3636 23.2159 26.2557 21.2216C25.1562 19.2187 24.6065 16.7812 24.6065 13.9091C24.6065 11.0284 25.1562 8.58665 26.2557 6.58381C27.3636 4.58097 28.8594 3.05966 30.7429 2.01989C32.6264 0.980113 34.7443 0.460226 37.0966 0.460226C39.4403 0.460226 41.554 0.980113 43.4375 2.01989C45.3295 3.05966 46.8295 4.58097 47.9375 6.58381C49.0455 8.58665 49.5994 11.0284 49.5994 13.9091ZM43.1307 13.9091C43.1307 12.2045 42.8878 10.7642 42.402 9.58807C41.9247 8.41193 41.2344 7.52131 40.331 6.91619C39.4361 6.31108 38.358 6.00852 37.0966 6.00852C35.8438 6.00852 34.7656 6.31108 33.8622 6.91619C32.9588 7.52131 32.2642 8.41193 31.7784 9.58807C31.3011 10.7642 31.0625 12.2045 31.0625 13.9091C31.0625 15.6136 31.3011 17.054 31.7784 18.2301C32.2642 19.4062 32.9588 20.2969 33.8622 20.902C34.7656 21.5071 35.8438 21.8097 37.0966 21.8097C38.358 21.8097 39.4361 21.5071 40.331 20.902C41.2344 20.2969 41.9247 19.4062 42.402 18.2301C42.8878 17.054 43.1307 15.6136 43.1307 13.9091ZM78.0057 13.9091C78.0057 16.7898 77.4517 19.2315 76.3438 21.2344C75.2358 23.2372 73.7358 24.7585 71.8438 25.7983C69.9602 26.8381 67.8466 27.358 65.5028 27.358C63.1506 27.358 61.0327 26.8338 59.1491 25.7855C57.2656 24.7372 55.7699 23.2159 54.6619 21.2216C53.5625 19.2187 53.0128 16.7812 53.0128 13.9091C53.0128 11.0284 53.5625 8.58665 54.6619 6.58381C55.7699 4.58097 57.2656 3.05966 59.1491 2.01989C61.0327 0.980113 63.1506 0.460226 65.5028 0.460226C67.8466 0.460226 69.9602 0.980113 71.8438 2.01989C73.7358 3.05966 75.2358 4.58097 76.3438 6.58381C77.4517 8.58665 78.0057 11.0284 78.0057 13.9091ZM71.5369 13.9091C71.5369 12.2045 71.294 10.7642 70.8082 9.58807C70.331 8.41193 69.6406 7.52131 68.7372 6.91619C67.8423 6.31108 66.7642 6.00852 65.5028 6.00852C64.25 6.00852 63.1719 6.31108 62.2685 6.91619C61.3651 7.52131 60.6705 8.41193 60.1847 9.58807C59.7074 10.7642 59.4688 12.2045 59.4688 13.9091C59.4688 15.6136 59.7074 17.054 60.1847 18.2301C60.6705 19.4062 61.3651 20.2969 62.2685 20.902C63.1719 21.5071 64.25 21.8097 65.5028 21.8097C66.7642 21.8097 67.8423 21.5071 68.7372 20.902C69.6406 20.2969 70.331 19.4062 70.8082 18.2301C71.294 17.054 71.5369 15.6136 71.5369 13.9091ZM81.7003 27V0.818181H88.0284V11.8892H88.3736L97.0284 0.818181H104.482L95.2003 12.5028L104.648 27H97.0795L90.5597 16.7088L88.0284 19.9048V27H81.7003ZM129.26 0.818181V27H123.891L113.472 11.8892H113.306V27H106.978V0.818181H112.424L122.728 15.9034H122.945V0.818181H129.26ZM157.951 13.9091C157.951 16.7898 157.397 19.2315 156.289 21.2344C155.181 23.2372 153.681 24.7585 151.789 25.7983C149.906 26.8381 147.792 27.358 145.448 27.358C143.096 27.358 140.978 26.8338 139.094 25.7855C137.211 24.7372 135.715 23.2159 134.607 21.2216C133.508 19.2187 132.958 16.7812 132.958 13.9091C132.958 11.0284 133.508 8.58665 134.607 6.58381C135.715 4.58097 137.211 3.05966 139.094 2.01989C140.978 0.980113 143.096 0.460226 145.448 0.460226C147.792 0.460226 149.906 0.980113 151.789 2.01989C153.681 3.05966 155.181 4.58097 156.289 6.58381C157.397 8.58665 157.951 11.0284 157.951 13.9091ZM151.482 13.9091C151.482 12.2045 151.239 10.7642 150.754 9.58807C150.276 8.41193 149.586 7.52131 148.683 6.91619C147.788 6.31108 146.71 6.00852 145.448 6.00852C144.195 6.00852 143.117 6.31108 142.214 6.91619C141.31 7.52131 140.616 8.41193 140.13 9.58807C139.653 10.7642 139.414 12.2045 139.414 13.9091C139.414 15.6136 139.653 17.054 140.13 18.2301C140.616 19.4062 141.31 20.2969 142.214 20.902C143.117 21.5071 144.195 21.8097 145.448 21.8097C146.71 21.8097 147.788 21.5071 148.683 20.902C149.586 20.2969 150.276 19.4062 150.754 18.2301C151.239 17.054 151.482 15.6136 151.482 13.9091ZM186.357 13.9091C186.357 16.7898 185.803 19.2315 184.695 21.2344C183.587 23.2372 182.087 24.7585 180.195 25.7983C178.312 26.8381 176.198 27.358 173.854 27.358C171.502 27.358 169.384 26.8338 167.501 25.7855C165.617 24.7372 164.121 23.2159 163.013 21.2216C161.914 19.2187 161.364 16.7812 161.364 13.9091C161.364 11.0284 161.914 8.58665 163.013 6.58381C164.121 4.58097 165.617 3.05966 167.501 2.01989C169.384 0.980113 171.502 0.460226 173.854 0.460226C176.198 0.460226 178.312 0.980113 180.195 2.01989C182.087 3.05966 183.587 4.58097 184.695 6.58381C185.803 8.58665 186.357 11.0284 186.357 13.9091ZM179.888 13.9091C179.888 12.2045 179.646 10.7642 179.16 9.58807C178.683 8.41193 177.992 7.52131 177.089 6.91619C176.194 6.31108 175.116 6.00852 173.854 6.00852C172.602 6.00852 171.523 6.31108 170.62 6.91619C169.717 7.52131 169.022 8.41193 168.536 9.58807C168.059 10.7642 167.82 12.2045 167.82 13.9091C167.82 15.6136 168.059 17.054 168.536 18.2301C169.022 19.4062 169.717 20.2969 170.62 20.902C171.523 21.5071 172.602 21.8097 173.854 21.8097C175.116 21.8097 176.194 21.5071 177.089 20.902C177.992 20.2969 178.683 19.4062 179.16 18.2301C179.646 17.054 179.888 15.6136 179.888 13.9091ZM190.052 27V0.818181H196.38V11.8892H196.725L205.38 0.818181H212.833L203.552 12.5028L212.999 27H205.431L198.911 16.7088L196.38 19.9048V27H190.052ZM215.329 27V0.818181H233.585V5.95739H221.657V11.3267H232.652V16.4787H221.657V21.8608H233.585V27H215.329ZM237.548 27V0.818181H248.363C250.324 0.818181 252.015 1.17187 253.439 1.87926C254.87 2.57812 255.974 3.58381 256.75 4.89631C257.525 6.20028 257.913 7.74716 257.913 9.53693C257.913 11.3523 257.517 12.8949 256.724 14.1648C255.931 15.4261 254.806 16.3892 253.349 17.054C251.892 17.7102 250.166 18.0384 248.172 18.0384H241.332V13.0526H246.995C247.95 13.0526 248.747 12.929 249.386 12.6818C250.034 12.4261 250.524 12.0426 250.856 11.5312C251.189 11.0114 251.355 10.3466 251.355 9.53693C251.355 8.72727 251.189 8.05824 250.856 7.52983C250.524 6.9929 250.034 6.59233 249.386 6.32812C248.738 6.0554 247.941 5.91903 246.995 5.91903H243.876V27H237.548ZM252.288 15.0341L258.808 27H251.904L245.512 15.0341H252.288ZM258.92 0.818181H265.989L271.525 11.7741H271.755L277.29 0.818181H284.36L274.785 18.2557V27H268.495V18.2557L258.92 0.818181Z" fill="black"/>
</svg>
